<?xml version="1.0" encoding="UTF-8"?>
<svg version="1.1" xmlns="http://www.w3.org/2000/svg" width="200" height="200">
<path d="M0 0 C11.55 0 23.1 0 35 0 C35 4.29 35 8.58 35 13 C38.96 13 42.92 13 47 13 C47 8.71 47 4.42 47 0 C58.55 0 70.1 0 82 0 C82 4.29 82 8.58 82 13 C85.96 13 89.92 13 94 13 C94 16.96 94 20.92 94 25 C97.96 25 101.92 25 106 25 C106 33.25 106 41.5 106 50 C109.63 50 113.26 50 117 50 C117 54.29 117 58.58 117 63 C120.96 63 124.92 63 129 63 C129 66.96 129 70.92 129 75 C132.96 75 136.92 75 141 75 C141 91.5 141 108 141 125 C137.04 125 133.08 125 129 125 C129 129.29 129 133.58 129 138 C125.04 138 121.08 138 117 138 C117 154.5 117 171 117 188 C113.37 188 109.74 188 106 188 C106 191.96 106 195.92 106 200 C63.1 200 20.2 200 -24 200 C-24 196.04 -24 192.08 -24 188 C-27.63 188 -31.26 188 -35 188 C-35 171.5 -35 155 -35 138 C-38.96 138 -42.92 138 -47 138 C-47 133.71 -47 129.42 -47 125 C-50.96 125 -54.92 125 -59 125 C-59 108.5 -59 92 -59 75 C-55.04 75 -51.08 75 -47 75 C-47 71.04 -47 67.08 -47 63 C-43.04 63 -39.08 63 -35 63 C-35 58.71 -35 54.42 -35 50 C-31.37 50 -27.74 50 -24 50 C-24 41.75 -24 33.5 -24 25 C-20.04 25 -16.08 25 -12 25 C-12 21.04 -12 17.08 -12 13 C-8.04 13 -4.08 13 0 13 C0 8.71 0 4.42 0 0 Z " fill="#FFA500" transform="translate(59,0)"/>
<path d="M0 0 C11.88 0 23.76 0 36 0 C36 4.29 36 8.58 36 13 C39.63 13 43.26 13 47 13 C47 16.96 47 20.92 47 25 C50.96 25 54.92 25 59 25 C59 29.29 59 33.58 59 38 C62.96 38 66.92 38 71 38 C71 50.21 71 62.42 71 75 C36.02 75 1.04 75 -35 75 C-35 62.79 -35 50.58 -35 38 C-31.04 38 -27.08 38 -23 38 C-23 33.71 -23 29.42 -23 25 C-19.04 25 -15.08 25 -11 25 C-11 21.04 -11 17.08 -11 13 C-7.37 13 -3.74 13 0 13 C0 8.71 0 4.42 0 0 Z " fill="#FFC0CB" transform="translate(82,100)"/>
<path d="M0 0 C7.59 0 15.18 0 23 0 C23 12.21 23 24.42 23 37 C57.98 37 92.96 37 129 37 C129 28.75 129 20.5 129 12 C132.96 12 136.92 12 141 12 C141 8.04 141 4.08 141 0 C144.63 0 148.26 0 152 0 C152 16.5 152 33 152 50 C148.37 50 144.74 50 141 50 C141 53.96 141 57.92 141 62 C98.1 62 55.2 62 11 62 C11 58.04 11 54.08 11 50 C7.37 50 3.74 50 0 50 C0 33.5 0 17 0 0 Z " fill="#FF9B00" transform="translate(24,138)"/>
<path d="M0 0 C3.63 0 7.26 0 11 0 C11 3.96 11 7.92 11 12 C14.96 12 18.92 12 23 12 C23 28.5 23 45 23 62 C19.04 62 15.08 62 11 62 C11 66.29 11 70.58 11 75 C7.37 75 3.74 75 0 75 C0 70.71 0 66.42 0 62 C-3.96 62 -7.92 62 -12 62 C-12 45.5 -12 29 -12 12 C-8.04 12 -4.08 12 0 12 C0 8.04 0 4.08 0 0 Z " fill="#FFC0CB" transform="translate(118,13)"/>
<path d="M0 0 C3.63 0 7.26 0 11 0 C11 3.96 11 7.92 11 12 C14.96 12 18.92 12 23 12 C23 28.5 23 45 23 62 C19.04 62 15.08 62 11 62 C11 66.29 11 70.58 11 75 C7.37 75 3.74 75 0 75 C0 70.71 0 66.42 0 62 C-3.96 62 -7.92 62 -12 62 C-12 45.5 -12 29 -12 12 C-8.04 12 -4.08 12 0 12 C0 8.04 0 4.08 0 0 Z " fill="#FFC0CB" transform="translate(71,13)"/>
<path d="M0 0 C3.96 0 7.92 0 12 0 C12 1.98 12 3.96 12 6 C13.65 6 15.3 6 17 6 C17 18.54 17 31.08 17 44 C15.35 44 13.7 44 12 44 C12 45.98 12 47.96 12 50 C8.04 50 4.08 50 0 50 C0 48.02 0 46.04 0 44 C-1.98 44 -3.96 44 -6 44 C-6 31.46 -6 18.92 -6 6 C-4.02 6 -2.04 6 0 6 C0 4.02 0 2.04 0 0 Z " fill="#FFC0CB" transform="translate(159,75)"/>
<path d="M0 0 C3.96 0 7.92 0 12 0 C12 1.98 12 3.96 12 6 C13.98 6 15.96 6 18 6 C18 18.54 18 31.08 18 44 C16.02 44 14.04 44 12 44 C12 45.98 12 47.96 12 50 C8.04 50 4.08 50 0 50 C0 48.02 0 46.04 0 44 C-1.65 44 -3.3 44 -5 44 C-5 31.46 -5 18.92 -5 6 C-3.35 6 -1.7 6 0 6 C0 4.02 0 2.04 0 0 Z " fill="#FFC0CB" transform="translate(29,75)"/>
<path d="M0 0 C3.63 0 7.26 0 11 0 C11 8.25 11 16.5 11 25 C7.37 25 3.74 25 0 25 C0 28.96 0 32.92 0 37 C-3.96 37 -7.92 37 -12 37 C-12 28.75 -12 20.5 -12 12 C-8.04 12 -4.08 12 0 12 C0 8.04 0 4.08 0 0 Z " fill="#FF8C00" transform="translate(165,138)"/>
<path d="M0 0 C3.63 0 7.26 0 11 0 C11 4.29 11 8.58 11 13 C14.96 13 18.92 13 23 13 C23 16.96 23 20.92 23 25 C15.41 25 7.82 25 0 25 C0 16.75 0 8.5 0 0 Z " fill="#FFA500" transform="translate(24,150)"/>
<path d="M0 0 C7.92 0 15.84 0 24 0 C24 4.29 24 8.58 24 13 C16.08 13 8.16 13 0 13 C0 8.71 0 4.42 0 0 Z " fill="#FF8C00" transform="translate(129,175)"/>
<path d="M0 0 C3.96 0 7.92 0 12 0 C12 4.29 12 8.58 12 13 C8.04 13 4.08 13 0 13 C0 8.71 0 4.42 0 0 Z " fill="#FF8C00" transform="translate(12,125)"/>
<path d="M0 0 C3.96 0 7.92 0 12 0 C12 3.96 12 7.92 12 12 C8.04 12 4.08 12 0 12 C0 8.04 0 4.08 0 0 Z " fill="#FFA500" transform="translate(35,188)"/>
<path d="M0 0 C3.96 0 7.92 0 12 0 C12 3.96 12 7.92 12 12 C8.04 12 4.08 12 0 12 C0 8.04 0 4.08 0 0 Z " fill="#FF8C00" transform="translate(0,113)"/>
</svg>
